<svg width="16" height="44" viewBox="0 0 16 44" fill="none" xmlns="http://www.w3.org/2000/svg">
<g clip-path="url(#clip0_8002_3054)">
<path d="M14.4505 27.1993L10.5805 23.3293C11.2815 22.4003 11.7025 21.2483 11.7025 19.9973C11.7025 16.9373 9.21354 14.4473 6.15254 14.4473C3.09254 14.4473 0.602539 16.9373 0.602539 19.9973C0.602539 23.0583 3.09254 25.5473 6.15254 25.5473C7.40354 25.5473 8.55554 25.1263 9.48454 24.4253L13.3545 28.2953C13.5055 28.4463 13.7045 28.5233 13.9025 28.5233C14.1005 28.5233 14.2985 28.4473 14.4505 28.2953C14.7535 27.9923 14.7535 27.5023 14.4505 27.1993ZM1.70254 19.9973C1.70254 17.5433 3.69954 15.5473 6.15254 15.5473C8.60654 15.5473 10.6025 17.5443 10.6025 19.9973C10.6025 22.4503 8.60654 24.4473 6.15254 24.4473C3.69854 24.4473 1.70254 22.4513 1.70254 19.9973Z" fill="black" fill-opacity="0.8"/>
</g>
<defs>
<clipPath id="clip0_8002_3054">
<rect width="15" height="44" fill="white" transform="translate(0.152344 -0.00268555)"/>
</clipPath>
</defs>
</svg>
