<svg width="15" height="44" viewBox="0 0 15 44" fill="none" xmlns="http://www.w3.org/2000/svg">
<g clip-path="url(#clip0_8002_2992)">
<path d="M13.5355 17.6798C13.0146 17.9988 12.5831 18.4446 12.2815 18.9757C11.9798 19.5067 11.8178 20.1056 11.8107 20.7163C11.8127 21.4037 12.0164 22.0754 12.3964 22.6481C12.7764 23.2209 13.3161 23.6696 13.9486 23.9386C13.6992 24.7432 13.3301 25.5057 12.8538 26.2004C12.1722 27.1816 11.4595 28.1627 10.3751 28.1627C9.29066 28.1627 9.01176 27.5327 7.76206 27.5327C6.54336 27.5327 6.10956 28.1834 5.11806 28.1834C4.12656 28.1834 3.43466 27.2745 2.63936 26.1591C1.58883 24.5966 1.01147 22.7641 0.976562 20.8815C0.976562 17.7831 2.99056 16.141 4.97346 16.141C6.02696 16.141 6.90486 16.8329 7.56586 16.8329C8.19586 16.8329 9.17706 16.0996 10.3751 16.0996C10.991 16.0838 11.6015 16.2196 12.1526 16.4951C12.7037 16.7707 13.1786 17.1775 13.5355 17.6798ZM9.80706 14.788C10.3352 14.1668 10.6341 13.3832 10.654 12.568C10.6549 12.4606 10.6445 12.3533 10.623 12.248C9.71582 12.3367 8.87697 12.769 8.27846 13.4564C7.74527 14.0529 7.43506 14.8156 7.40056 15.6149C7.40096 15.7122 7.41135 15.8091 7.43156 15.9041C7.50308 15.9177 7.57568 15.9246 7.64846 15.9248C8.06654 15.8916 8.47348 15.7737 8.84456 15.5782C9.21564 15.3828 9.54311 15.114 9.80706 14.788Z" fill="black" fill-opacity="0.8"/>
</g>
<defs>
<clipPath id="clip0_8002_2992">
<rect width="14" height="44" fill="white" transform="translate(0.462891 -0.00268555)"/>
</clipPath>
</defs>
</svg>
